<?xml version="1.0" encoding="UTF-8" standalone="no"?>
<!DOCTYPE svg PUBLIC "-//W3C//DTD SVG 1.0//EN" "http://www.w3.org/TR/2001/REC-SVG-20010904/DTD/svg10.dtd">
<!-- Microsoft Visio 11.0、SVG Export v1.0 により生成 key_mapping.svg Page-1 -->
<svg xmlns="http://www.w3.org/2000/svg" xmlns:v="http://schemas.microsoft.com/visio/2003/SVGExtensions/" width="8.26772in"
		height="11.6929in" viewBox="0 0 595.276 841.89" xml:space="preserve" color-interpolation-filters="sRGB" class="st5">
	<v:documentProperties v:langID="1041" v:metric="true" v:viewMarkup="false"/>

	<style type="text/css">
	<![CDATA[
		.st1 {stroke:#000000;stroke-linecap:round;stroke-linejoin:round;stroke-width:1.2}
		.st2 {fill:none;stroke:none;stroke-linecap:round;stroke-linejoin:round;stroke-width:0.72}
		.st3 {fill:#000000;font-family:ＭＳ Ｐゴシック;font-size:1.5em}
		.st4 {fill:#000000;stroke:#000000;stroke-linecap:round;stroke-linejoin:round;stroke-width:0.72}
		.st5 {fill:none;fill-rule:evenodd;font-size:12;overflow:visible;stroke-linecap:square;stroke-miterlimit:3}
	]]>
	</style>

	<g v:mID="0" v:index="1" v:groupContext="foregroundPage">
		<title>Page-1</title>
		<v:pageProperties v:drawingScale="0.0393701" v:pageScale="0.0393701" v:drawingUnits="24" v:shadowOffsetX="8.50394"
				v:shadowOffsetY="-8.50394"/>
		<g id="shape1-1" v:mID="1" v:groupContext="shape" transform="translate(85.0394,-538.583)">
			<title>シート.1</title>
			<path d="M0 841.89 L85.04 841.89" class="st1"/>
		</g>
		<g id="shape2-4" v:mID="2" v:groupContext="shape" transform="translate(85.0394,-510.236)">
			<title>シート.2</title>
			<path d="M0 841.89 L85.04 841.89" class="st1"/>
		</g>
		<g id="shape3-7" v:mID="3" v:groupContext="shape" transform="translate(907.117,-320.345) rotate(45)">
			<title>シート.3</title>
			<path d="M0 841.89 L120.26 841.89" class="st1"/>
		</g>
		<g id="shape4-10" v:mID="4" v:groupContext="shape" transform="translate(983.622,274.961) rotate(90)">
			<title>シート.4</title>
			<path d="M0 841.89 L85.04 841.89" class="st1"/>
		</g>
		<g id="shape5-13" v:mID="5" v:groupContext="shape" transform="translate(955.276,274.961) rotate(90)">
			<title>シート.5</title>
			<path d="M0 841.89 L85.04 841.89" class="st1"/>
		</g>
		<g id="shape6-16" v:mID="6" v:groupContext="shape" transform="translate(992.156,870.267) rotate(135)">
			<title>シート.6</title>
			<path d="M0 841.89 L120.26 841.89" class="st1"/>
		</g>
		<g id="shape7-19" v:mID="7" v:groupContext="shape" transform="translate(198.425,-538.583)">
			<title>シート.7</title>
			<path d="M0 841.89 L85.04 841.89" class="st1"/>
		</g>
		<g id="shape8-22" v:mID="8" v:groupContext="shape" transform="translate(198.425,-510.236)">
			<title>シート.8</title>
			<path d="M0 841.89 L85.04 841.89" class="st1"/>
		</g>
		<g id="shape9-25" v:mID="9" v:groupContext="shape" transform="translate(1097.01,274.961) rotate(90)">
			<title>シート.9</title>
			<path d="M0 841.89 L85.04 841.89" class="st1"/>
		</g>
		<g id="shape10-28" v:mID="10" v:groupContext="shape" transform="translate(1068.66,274.961) rotate(90)">
			<title>シート.10</title>
			<path d="M0 841.89 L85.04 841.89" class="st1"/>
		</g>
		<g id="shape11-31" v:mID="11" v:groupContext="shape" transform="translate(1020.5,-320.345) rotate(45)">
			<title>シート.11</title>
			<path d="M0 841.89 L120.26 841.89" class="st1"/>
		</g>
		<g id="shape12-34" v:mID="12" v:groupContext="shape" transform="translate(1105.54,870.267) rotate(135)">
			<title>シート.12</title>
			<path d="M0 841.89 L120.26 841.89" class="st1"/>
		</g>
		<g id="shape13-37" v:mID="13" v:groupContext="shape" transform="translate(85.0394,-538.583)">
			<title>シート.13</title>
			<desc>A</desc>
			<v:textBlock v:margins="rect(4,4,4,4)" v:tabSpace="42.5197"/>
			<v:textRect cx="14.1732" cy="827.717" width="28.35" height="28.3465"/>
			<rect x="0" y="813.543" width="28.3465" height="28.3465" class="st2"/>
			<text x="8.48" y="833.12" class="st3" v:langID="1041"><v:paragraph v:horizAlign="1"/><v:tabList/>A</text>		</g>
		<g id="shape14-40" v:mID="14" v:groupContext="shape" transform="translate(113.386,-538.583)">
			<title>シート.14</title>
			<desc>B</desc>
			<v:textBlock v:margins="rect(4,4,4,4)" v:tabSpace="42.5197"/>
			<v:textRect cx="14.1732" cy="827.717" width="28.35" height="28.3465"/>
			<rect x="0" y="813.543" width="28.3465" height="28.3465" class="st2"/>
			<text x="8.44" y="833.12" class="st3" v:langID="1041"><v:paragraph v:horizAlign="1"/><v:tabList/>B</text>		</g>
		<g id="shape15-43" v:mID="15" v:groupContext="shape" transform="translate(141.732,-538.583)">
			<title>シート.15</title>
			<desc>C</desc>
			<v:textBlock v:margins="rect(4,4,4,4)" v:tabSpace="42.5197"/>
			<v:textRect cx="14.1732" cy="827.717" width="28.35" height="28.3465"/>
			<rect x="0" y="813.543" width="28.3465" height="28.3465" class="st2"/>
			<text x="8.2" y="833.12" class="st3" v:langID="1041"><v:paragraph v:horizAlign="1"/><v:tabList/>C</text>		</g>
		<g id="shape17-46" v:mID="17" v:groupContext="shape" transform="translate(85.0394,-481.89)">
			<title>シート.17</title>
			<desc>G</desc>
			<v:textBlock v:margins="rect(4,4,4,4)" v:tabSpace="42.5197"/>
			<v:textRect cx="14.1732" cy="827.717" width="28.35" height="28.3465"/>
			<rect x="0" y="813.543" width="28.3465" height="28.3465" class="st2"/>
			<text x="8.06" y="833.12" class="st3" v:langID="1041"><v:paragraph v:horizAlign="1"/><v:tabList/>G</text>		</g>
		<g id="shape18-49" v:mID="18" v:groupContext="shape" transform="translate(113.386,-481.89)">
			<title>シート.18</title>
			<desc>H</desc>
			<v:textBlock v:margins="rect(4,4,4,4)" v:tabSpace="42.5197"/>
			<v:textRect cx="14.1732" cy="827.717" width="28.35" height="28.3465"/>
			<rect x="0" y="813.543" width="28.3465" height="28.3465" class="st2"/>
			<text x="8.41" y="833.12" class="st3" v:langID="1041"><v:paragraph v:horizAlign="1"/><v:tabList/>H</text>		</g>
		<g id="shape19-52" v:mID="19" v:groupContext="shape" transform="translate(141.732,-481.89)">
			<title>シート.19</title>
			<desc>I</desc>
			<v:textBlock v:margins="rect(4,4,4,4)" v:tabSpace="42.5197"/>
			<v:textRect cx="14.1732" cy="827.717" width="28.35" height="28.3465"/>
			<rect x="0" y="813.543" width="28.3465" height="28.3465" class="st2"/>
			<text x="11.96" y="833.12" class="st3" v:langID="1041"><v:paragraph v:horizAlign="1"/><v:tabList/>I</text>		</g>
		<g id="shape16-55" v:mID="16" v:groupContext="shape" transform="translate(85.0394,-510.236)">
			<title>シート.16</title>
			<desc>D</desc>
			<v:textBlock v:margins="rect(4,4,4,4)" v:tabSpace="42.5197"/>
			<v:textRect cx="14.1732" cy="827.717" width="28.35" height="28.3465"/>
			<rect x="0" y="813.543" width="28.3465" height="28.3465" class="st2"/>
			<text x="8.34" y="833.12" class="st3" v:langID="1041"><v:paragraph v:horizAlign="1"/><v:tabList/>D</text>		</g>
		<g id="shape20-58" v:mID="20" v:groupContext="shape" transform="translate(113.386,-510.236)">
			<title>シート.20</title>
			<desc>E</desc>
			<v:textBlock v:margins="rect(4,4,4,4)" v:tabSpace="42.5197"/>
			<v:textRect cx="14.1732" cy="827.717" width="28.35" height="28.3465"/>
			<rect x="0" y="813.543" width="28.3465" height="28.3465" class="st2"/>
			<text x="9.08" y="833.12" class="st3" v:langID="1041"><v:paragraph v:horizAlign="1"/><v:tabList/>E</text>		</g>
		<g id="shape21-61" v:mID="21" v:groupContext="shape" transform="translate(141.732,-510.236)">
			<title>シート.21</title>
			<desc>F</desc>
			<v:textBlock v:margins="rect(4,4,4,4)" v:tabSpace="42.5197"/>
			<v:textRect cx="14.1732" cy="827.717" width="28.35" height="28.3465"/>
			<rect x="0" y="813.543" width="28.3465" height="28.3465" class="st2"/>
			<text x="9.22" y="833.12" class="st3" v:langID="1041"><v:paragraph v:horizAlign="1"/><v:tabList/>F</text>		</g>
		<g id="shape22-64" v:mID="22" v:groupContext="shape" transform="translate(195.591,-541.417)">
			<title>シート.22</title>
			<desc>J</desc>
			<v:textBlock v:margins="rect(4,4,4,4)" v:tabSpace="42.5197"/>
			<v:textRect cx="14.1732" cy="827.717" width="28.35" height="28.3465"/>
			<rect x="0" y="813.543" width="28.3465" height="28.3465" class="st2"/>
			<text x="9.29" y="833.12" class="st3" v:langID="1041"><v:paragraph v:horizAlign="1"/><v:tabList/>J</text>		</g>
		<g id="shape23-67" v:mID="23" v:groupContext="shape" transform="translate(226.772,-541.417)">
			<title>シート.23</title>
			<desc>K</desc>
			<v:textBlock v:margins="rect(4,4,4,4)" v:tabSpace="42.5197"/>
			<v:textRect cx="14.1732" cy="827.717" width="28.35" height="28.3465"/>
			<rect x="0" y="813.543" width="28.3465" height="28.3465" class="st2"/>
			<text x="8.8" y="833.12" class="st3" v:langID="1041"><v:paragraph v:horizAlign="1"/><v:tabList/>K</text>		</g>
		<g id="shape24-70" v:mID="24" v:groupContext="shape" transform="translate(257.953,-541.417)">
			<title>シート.24</title>
			<desc>L</desc>
			<v:textBlock v:margins="rect(4,4,4,4)" v:tabSpace="42.5197"/>
			<v:textRect cx="14.1732" cy="827.717" width="28.35" height="28.3465"/>
			<rect x="0" y="813.543" width="28.3465" height="28.3465" class="st2"/>
			<text x="9.32" y="833.12" class="st3" v:langID="1041"><v:paragraph v:horizAlign="1"/><v:tabList/>L</text>		</g>
		<g id="shape25-73" v:mID="25" v:groupContext="shape" transform="translate(195.591,-510.236)">
			<title>シート.25</title>
			<desc>M</desc>
			<v:textBlock v:margins="rect(4,4,4,4)" v:tabSpace="42.5197"/>
			<v:textRect cx="14.1732" cy="827.717" width="28.35" height="28.3465"/>
			<rect x="0" y="813.543" width="28.3465" height="28.3465" class="st2"/>
			<text x="7.5" y="833.12" class="st3" v:langID="1041"><v:paragraph v:horizAlign="1"/><v:tabList/>M</text>		</g>
		<g id="shape26-76" v:mID="26" v:groupContext="shape" transform="translate(226.772,-510.236)">
			<title>シート.26</title>
			<desc>N</desc>
			<v:textBlock v:margins="rect(4,4,4,4)" v:tabSpace="42.5197"/>
			<v:textRect cx="14.1732" cy="827.717" width="28.35" height="28.3465"/>
			<rect x="0" y="813.543" width="28.3465" height="28.3465" class="st2"/>
			<text x="8.41" y="833.12" class="st3" v:langID="1041"><v:paragraph v:horizAlign="1"/><v:tabList/>N</text>		</g>
		<g id="shape27-79" v:mID="27" v:groupContext="shape" transform="translate(257.953,-510.236)">
			<title>シート.27</title>
			<desc>O</desc>
			<v:textBlock v:margins="rect(4,4,4,4)" v:tabSpace="42.5197"/>
			<v:textRect cx="14.1732" cy="827.717" width="28.35" height="28.3465"/>
			<rect x="0" y="813.543" width="28.3465" height="28.3465" class="st2"/>
			<text x="7.81" y="833.12" class="st3" v:langID="1041"><v:paragraph v:horizAlign="1"/><v:tabList/>O</text>		</g>
		<g id="shape28-82" v:mID="28" v:groupContext="shape" transform="translate(195.591,-479.055)">
			<title>シート.28</title>
			<desc>P</desc>
			<v:textBlock v:margins="rect(4,4,4,4)" v:tabSpace="42.5197"/>
			<v:textRect cx="14.1732" cy="827.717" width="28.35" height="28.3465"/>
			<rect x="0" y="813.543" width="28.3465" height="28.3465" class="st2"/>
			<text x="8.62" y="833.12" class="st3" v:langID="1041"><v:paragraph v:horizAlign="1"/><v:tabList/>P</text>		</g>
		<g id="shape29-85" v:mID="29" v:groupContext="shape" transform="translate(226.772,-476.22)">
			<title>シート.29</title>
			<desc>Q</desc>
			<v:textBlock v:margins="rect(4,4,4,4)" v:tabSpace="42.5197"/>
			<v:textRect cx="14.1732" cy="827.717" width="28.35" height="28.3465"/>
			<rect x="0" y="813.543" width="28.3465" height="28.3465" class="st2"/>
			<text x="7.81" y="833.12" class="st3" v:langID="1041"><v:paragraph v:horizAlign="1"/><v:tabList/>Q</text>		</g>
		<g id="shape30-88" v:mID="30" v:groupContext="shape" transform="translate(257.953,-479.055)">
			<title>シート.30</title>
			<desc>R</desc>
			<v:textBlock v:margins="rect(4,4,4,4)" v:tabSpace="42.5197"/>
			<v:textRect cx="14.1732" cy="827.717" width="28.35" height="28.3465"/>
			<rect x="0" y="813.543" width="28.3465" height="28.3465" class="st2"/>
			<text x="8.55" y="833.12" class="st3" v:langID="1041"><v:paragraph v:horizAlign="1"/><v:tabList/>R</text>		</g>
		<g id="shape31-91" v:mID="31" v:groupContext="shape" transform="translate(340.157,-538.583)">
			<title>シート.31</title>
			<desc>S</desc>
			<v:textBlock v:margins="rect(4,4,4,4)" v:tabSpace="42.5197"/>
			<v:textRect cx="14.1732" cy="827.717" width="28.35" height="28.3465"/>
			<rect x="0" y="813.543" width="28.3465" height="28.3465" class="st2"/>
			<text x="8.76" y="833.12" class="st3" v:langID="1041"><v:paragraph v:horizAlign="1"/><v:tabList/>S</text>		</g>
		<g id="shape32-94" v:mID="32" v:groupContext="shape" transform="translate(368.504,-510.236)">
			<title>シート.32</title>
			<desc>U</desc>
			<v:textBlock v:margins="rect(4,4,4,4)" v:tabSpace="42.5197"/>
			<v:textRect cx="14.1732" cy="827.717" width="28.35" height="28.3465"/>
			<rect x="0" y="813.543" width="28.3465" height="28.3465" class="st2"/>
			<text x="8.41" y="833.12" class="st3" v:langID="1041"><v:paragraph v:horizAlign="1"/><v:tabList/>U</text>		</g>
		<g id="shape33-97" v:mID="33" v:groupContext="shape" transform="translate(340.157,-481.89)">
			<title>シート.33</title>
			<desc>V</desc>
			<v:textBlock v:margins="rect(4,4,4,4)" v:tabSpace="42.5197"/>
			<v:textRect cx="14.1732" cy="827.717" width="28.35" height="28.3465"/>
			<rect x="0" y="813.543" width="28.3465" height="28.3465" class="st2"/>
			<text x="8.48" y="833.12" class="st3" v:langID="1041"><v:paragraph v:horizAlign="1"/><v:tabList/>V</text>		</g>
		<g id="shape34-100" v:mID="34" v:groupContext="shape" transform="translate(311.811,-510.236)">
			<title>シート.34</title>
			<desc>T</desc>
			<v:textBlock v:margins="rect(4,4,4,4)" v:tabSpace="42.5197"/>
			<v:textRect cx="14.1732" cy="827.717" width="28.35" height="28.3465"/>
			<rect x="0" y="813.543" width="28.3465" height="28.3465" class="st2"/>
			<text x="8.87" y="833.12" class="st3" v:langID="1041"><v:paragraph v:horizAlign="1"/><v:tabList/>T</text>		</g>
		<g id="shape35-103" v:mID="35" v:groupContext="shape" transform="translate(453.543,-538.583)">
			<title>シート.35</title>
			<desc>W</desc>
			<v:textBlock v:margins="rect(4,4,4,4)" v:tabSpace="42.5197"/>
			<v:textRect cx="14.1732" cy="827.717" width="28.35" height="28.3465"/>
			<rect x="0" y="813.543" width="28.3465" height="28.3465" class="st2"/>
			<text x="7.5" y="833.12" class="st3" v:langID="1041"><v:paragraph v:horizAlign="1"/><v:tabList/>W</text>		</g>
		<g id="shape36-106" v:mID="36" v:groupContext="shape" transform="translate(481.89,-510.236)">
			<title>シート.36</title>
			<desc>Y</desc>
			<v:textBlock v:margins="rect(4,4,4,4)" v:tabSpace="42.5197"/>
			<v:textRect cx="14.1732" cy="827.717" width="28.35" height="28.3465"/>
			<rect x="0" y="813.543" width="28.3465" height="28.3465" class="st2"/>
			<text x="8.87" y="833.12" class="st3" v:langID="1041"><v:paragraph v:horizAlign="1"/><v:tabList/>Y</text>		</g>
		<g id="shape37-109" v:mID="37" v:groupContext="shape" transform="translate(453.543,-481.89)">
			<title>シート.37</title>
			<desc>Z</desc>
			<v:textBlock v:margins="rect(4,4,4,4)" v:tabSpace="42.5197"/>
			<v:textRect cx="14.1732" cy="827.717" width="28.35" height="28.3465"/>
			<rect x="0" y="813.543" width="28.3465" height="28.3465" class="st2"/>
			<text x="9.08" y="833.12" class="st3" v:langID="1041"><v:paragraph v:horizAlign="1"/><v:tabList/>Z</text>		</g>
		<g id="shape38-112" v:mID="38" v:groupContext="shape" transform="translate(425.197,-510.236)">
			<title>シート.38</title>
			<desc>X</desc>
			<v:textBlock v:margins="rect(4,4,4,4)" v:tabSpace="42.5197"/>
			<v:textRect cx="14.1732" cy="827.717" width="28.35" height="28.3465"/>
			<rect x="0" y="813.543" width="28.3465" height="28.3465" class="st2"/>
			<text x="8.76" y="833.12" class="st3" v:langID="1041"><v:paragraph v:horizAlign="1"/><v:tabList/>X</text>		</g>
		<g id="shape41-115" v:mID="41" v:groupContext="shape" transform="translate(239.173,-503.858)">
			<title>シート.41</title>
			<ellipse cx="1.77165" cy="840.118" rx="1.77165" ry="1.77165" class="st4"/>
		</g>
		<g id="shape39-117" v:mID="39" v:groupContext="shape" transform="translate(257.953,-503.858)">
			<title>シート.39</title>
			<ellipse cx="1.77165" cy="840.118" rx="1.77165" ry="1.77165" class="st4"/>
		</g>
		<g id="shape42-119" v:mID="42" v:groupContext="shape" transform="translate(220.394,-503.858)">
			<title>シート.42</title>
			<ellipse cx="1.77165" cy="840.118" rx="1.77165" ry="1.77165" class="st4"/>
		</g>
		<g id="shape40-121" v:mID="40" v:groupContext="shape" transform="translate(239.173,-513.638)">
			<title>シート.40</title>
			<ellipse cx="1.77165" cy="840.118" rx="1.77165" ry="1.77165" class="st4"/>
		</g>
		<g id="shape43-123" v:mID="43" v:groupContext="shape" transform="translate(257.953,-522.638)">
			<title>シート.43</title>
			<ellipse cx="1.77165" cy="840.118" rx="1.77165" ry="1.77165" class="st4"/>
		</g>
		<g id="shape44-125" v:mID="44" v:groupContext="shape" transform="translate(220.394,-522.638)">
			<title>シート.44</title>
			<ellipse cx="1.77165" cy="840.118" rx="1.77165" ry="1.77165" class="st4"/>
		</g>
		<g id="shape45-127" v:mID="45" v:groupContext="shape" transform="translate(220.394,-541.417)">
			<title>シート.45</title>
			<ellipse cx="1.77165" cy="840.118" rx="1.77165" ry="1.77165" class="st4"/>
		</g>
		<g id="shape46-129" v:mID="46" v:groupContext="shape" transform="translate(239.173,-541.417)">
			<title>シート.46</title>
			<ellipse cx="1.77165" cy="840.118" rx="1.77165" ry="1.77165" class="st4"/>
		</g>
		<g id="shape47-131" v:mID="47" v:groupContext="shape" transform="translate(257.953,-541.417)">
			<title>シート.47</title>
			<ellipse cx="1.77165" cy="840.118" rx="1.77165" ry="1.77165" class="st4"/>
		</g>
		<g id="shape48-133" v:mID="48" v:groupContext="shape" transform="translate(465.945,-511.299)">
			<title>シート.48</title>
			<ellipse cx="1.77165" cy="840.118" rx="1.77165" ry="1.77165" class="st4"/>
		</g>
		<g id="shape49-135" v:mID="49" v:groupContext="shape" transform="translate(465.945,-533.976)">
			<title>シート.49</title>
			<ellipse cx="1.77165" cy="840.118" rx="1.77165" ry="1.77165" class="st4"/>
		</g>
		<g id="shape50-137" v:mID="50" v:groupContext="shape" transform="translate(477.283,-522.709)">
			<title>シート.50</title>
			<ellipse cx="1.77165" cy="840.118" rx="1.77165" ry="1.77165" class="st4"/>
		</g>
		<g id="shape51-139" v:mID="51" v:groupContext="shape" transform="translate(454.606,-522.638)">
			<title>シート.51</title>
			<ellipse cx="1.77165" cy="840.118" rx="1.77165" ry="1.77165" class="st4"/>
		</g>
	</g>
</svg>
